/* XPM */
static char *result[] = {
/* columns rows colors chars-per-pixel */
"64 64 120 2 ",
"   c #475A1E",
".  c #495D1F",
"X  c #4A5F20",
"o  c #4D6221",
"O  c #506722",
"+  c #556C24",
"@  c #577025",
"#  c #5A7326",
"$  c #5E7827",
"%  c #5D7629",
"&  c #5F7829",
"*  c #627C2A",
"=  c #6C7E2A",
"-  c #607830",
";  c #66822C",
":  c #69852D",
">  c #6C8A2E",
",  c #74832C",
"<  c #7D862C",
"1  c #698432",
"2  c #6F8C31",
"3  c #6F8938",
"4  c #708E30",
"5  c #798738",
"6  c #708B38",
"7  c #739231",
"8  c #789734",
"9  c #779833",
"0  c #7B9C35",
"q  c #76933B",
"w  c #78943B",
"e  c #7E9D3B",
"r  c #7EA136",
"t  c #7FA138",
"y  c #7B9741",
"u  c #7D9943",
"i  c #84862C",
"p  c #82882C",
"a  c #8D8B2E",
"s  c #938D2D",
"d  c #9A8F2E",
"f  c #9D912E",
"g  c #858E3C",
"h  c #A3932F",
"j  c #A8952F",
"k  c #B69B2F",
"l  c #AB9730",
"z  c #AD9831",
"x  c #B79C31",
"c  c #B99D32",
"v  c #81A437",
"b  c #83A638",
"n  c #85A939",
"m  c #89AE3B",
"M  c #8DB33D",
"N  c #90B63F",
"B  c #91B83F",
"V  c #BAA037",
"C  c #BCA139",
"Z  c #869040",
"A  c #829F44",
"S  c #959743",
"D  c #85A444",
"F  c #8AAA46",
"G  c #84A149",
"H  c #89A64C",
"J  c #8BA94C",
"K  c #8EB143",
"L  c #91B545",
"P  c #94BC41",
"I  c #98BF45",
"U  c #97BB4B",
"Y  c #99BF49",
"T  c #8AA651",
"R  c #8EAB52",
"E  c #91AF53",
"W  c #93B253",
"Q  c #9BBF50",
"!  c #96B458",
"~  c #98B65A",
"^  c #9DBC5E",
"/  c #BDAE57",
"(  c #B7AE5C",
")  c #C0A641",
"_  c #C3A946",
"`  c #C5AC4A",
"'  c #C8AF4F",
"]  c #C8AF50",
"[  c #CAB253",
"{  c #CCB65B",
"}  c #CFB85D",
"|  c #D0B95E",
" . c #C8B967",
".. c #D2BB61",
"X. c #D5BF68",
"o. c #97C042",
"O. c #99C144",
"+. c #9DC34C",
"@. c #9FC452",
"#. c #A2C655",
"$. c #A3C854",
"%. c #A3C65A",
"&. c #A6C95B",
"*. c #A8CC5E",
"=. c #A5C464",
"-. c #A8C767",
";. c #A7CA60",
":. c #AACB64",
">. c #ADCE6B",
",. c #B0CF6E",
"<. c #ADD163",
"1. c #AFD06B",
"2. c #B1D16E",
"3. c #B0CF70",
"4. c #B2D270",
"5. c #D7C16B",
"6. c #D8C26E",
"7. c #DBC571",
"8. c #E2CA76",
"9. c None",
/* pixels */
"9.9.9.9.9.9.9.9.9.9.9.9.9.9.9.9.9.9.9.9.9.9.9.# * 9 L $.;.,.,.>.2.^ w - 9.9.9.9.9.9.9.9.9.9.9.9.9.9.9.9.9.9.9.9.9.9.9.9.9.9.9.9.",
"9.9.9.9.9.9.9.9.9.9.9.9.9.9.9.9.9.9.9.9.9.9.* 7 0 K @.*.>.,.>.>.&.U m 9 > 9.9.9.9.9.9.9.9.9.9.9.9.9.9.9.9.9.9.9.9.9.9.9.9.9.9.9.",
"9.9.9.9.9.9.9.9.9.9.9.9.9.9.9.9.9.9.9.9.9.# * e +.&.>.>.;.>.>.&.@.O.+.L 7 % 9.9.9.9.9.9.9.9.9.9.9.9.9.9.9.9.9.9.9.9.9.9.9.9.9.9.",
"9.9.9.9.9.9.9.& & & & 9.9.9.9.9.9.9.9.9.9.# * G -.2.>.&.+.#.>.&.@.+.*.%.y * 9.9.9.9.9.9.9.9.9.9.9.9.9.9.9.9.9.9.9.9.9.9.9.9.9.9.",
"9.9.9.9.9.* u J D v 7 * 9.9.9.9.9.9.9.9.9.# * G >.3.,.-.&.;.>.>.;.;.>.=.u - 9.9.9.9.9.9.9.9.9.9.9.9.9.9.9.9.9.9.9.9.9.9.9.9.9.9.",
"9.9.9.9.# 1 H >.*.I m q 3 9.9.9.9.9.9.9.9.% * D %.;.;.;.;.>.>.>.,.>.2.^ y * 9.9.9.9.9.9.9.9.9.9.9.9.9.9.9.9.9.9.9.9.9.9.9.9.9.9.",
"9.9.9.9.# 1 H -.&.+.#.=.R 1 # 9.9.9.9.9.9.# * e Y +.+.O.+.@.:.,.>.3.,.=.y * 9.9.9.9.9.9.9.9.9.9.9.9.9.* * * * 9.9.9.9.9.9.9.9.9.",
"9.9.9.9.+ * H -.,.;.&.#.b * o 9.9.9.9.9.9.+ * A %.;.&.#.O.+.:.2.>.,.3.=.y % 9.9.9.9.9.9.9.9.9.9.9.9.1 G R F b 7 * 9.9.9.9.9.9.9.",
"9.9.9.9.> 8 W -.>.&.*.#.e @ X 9.9.9.9.9.9.> 8 E >.>.;.&.#.&.:.>.-.:.*.@.D 7 : 9.9.9.9.9.9.9.9.9.9.# 1 E >.<.@.e * # 9.9.9.9.9.9.",
"9.9.# ; t O.&.>.$.+.$.:.H % X 9.9.9.9.# ; 0 I $.-.$.+.@.:.>.>.:.+.O.O.+.O.B 9 * 9.9.9.9.9.9.9.9.9.# 6 W >.4.=.A * # 9.9.9.9.9.9.",
"9.9.# 1 J ;.>.:.#.+.$.:.T %   9.9.9.9.# : H &.&.+.+.O.O.+.%.>.;.+.+.%.&.$.B 9 * # 9.9.9.9.9.9.  # 0 L %.>.4.-.G * # 9.9.9.9.9.9.",
"9.9.# : H &.>.>.;.%.*.:.! q * + 9.9.9.# 1 T >.%.O.O.+.+.O.+.#.&.#.&.:.:.#.B 9 $ # 9.9.9.9.9.9.  # b +.:.>.4.-.A * # 9.9.9.9.9.9.",
"9.9.# : b +.&.>.>.>.>.>.;.+.r # . 9.9.# 1 H ;.&.+.%.:.&.O.P O.+.;.>.2.:.$.P 7 * # 9.9.9.9.9.9.+ * b @.&.>.2.;.G * @ 9.9.9.9.9.9.",
"9.9.# 1 J -.1.>.&.+.$.>.;.+.b # . 9.9.# * b +.$.;.>.>.&.+.O.O.+.-.>.>.:.$.L 9 * # 9.9.9.9.X & 0 L %.;.#.@.:.-.A * @ 9.9.9.9.9.9.",
"9.9.# 1 R >.4.>.#.O.+.#.&.&.F % . 9.9.# ; e I &.>.3.4.:.%.+.+.+.;.,.,.>.$.P 7 * # 9.9.9.9.X % r I #.&.%.#.&.Q e * # 9.9.9.9.9.9.",
"9.9.# 1 R >.1.:.%.+.O.O.@.:.R - . 9.9.# ; r I &.>.>.:.>.>.&.+.+.;.,.,.:.$.P 9 & # 9.9.9.9.X # 9 m M +.&.>.&.U 0 * % 9.9.9.9.9.9.",
"9.9.# 1 R -.&.+.#.:.%.O.O.+.b % X 9.9.% * t I &.>.&.+.&.>.&.+.+.;.,.2.:.$.L 9 * # 9.9.9.9.. # 9 n n M @.>.1.=.D * # 9.9.9.9.9.9.",
"9.9.9.1 y G K O.&.>.&.+.O.O.r # X 9.9.# ; t I +.#.$.%.;.>.-.&.&.:.:.*.$.+.B 9 * + .     # ; 7 0 n M L =.>.1.@.u * # 9.9.9.9.9.9.",
"9.9.9.9.# * 0 I $.;.$.O.o.B n : + 9.9.# * v o.O.O.%.>.>.>.>.>.>.3.:.+.O.O.B 9 * + + + + * 0 b b n M +.%.&.U n 4 * 9.9.9.9.9.9.9.",
"9.9.9.9.# * r P O.O.+.o.B m M M v * o + ; v P O.O.#.:.&.+.@.*.,.,.:.@.O.O.B 9 * * > > > 9 r r 9 9 v m P L 4 + + 9.9.9.9.9.9.9.9.",
"9.9.9.9.# ; r I O.O.B M m b n M n 9 : @ + % : ; : b Q $.&.%.#.&.:.>.@.o.O.B 9 * ; 4 7 7 9 9 9 7 9 0 n M r ; o 9.9.9.9.9.9.9.9.9.",
"9.9.9.9.9.* 9 m B P B M m n b b b b 9 : # + + O # 2 L #.&.#.+.+.-.:.@.o.O.B 9 * ; 7 7 7 7 4 7 7 0 v n n r & o 9.9.9.9.9.9.9.9.9.",
"9.9.9.9.9.9.# : 0 P O.B M m b b v 9 7 0 0 9 2 > 4 b P O.O.O.O.+.:.:.@.o.O.B 9 * ; 2 7 7 4 7 9 r b b b b 0 & O 9.9.9.9.9.9.9.9.9.",
"9.9.9.9.9.9.@ * 0 B o.M m b b n r 9 7 9 9 7 7 7 9 0 m B P I O.+.:.:.@.O.O.P 9 * ; > 7 7 7 7 7 9 7 * # $ # @ 9.9.9.9.9.9.9.9.9.9.",
"9.9.9.9.9.9.9.* 7 b m m m n n b v 0 9 9 9 7 7 7 7 9 b M P O.o.+.$.*.+.O.B M 7 * ; 4 7 7 7 7 4 : % + .   . 9.9.9.9.9.9.9.9.9.9.9.",
"9.9.9.9.9.9.9.9.9.* 8 M M n b b b b b b r 9 7 4 7 9 r n P o.O.o.I O.O.O.N b > * ; 2 4 4 2 2 ; + o 9.9.9.9.9.9.9.9.9.9.9.9.9.9.9.",
"9.9.9.9.9.9.9.9.9.9.; 2 9 r n n b b b 9 9 7 7 7 7 ; # > b M P o.o.O.O.B m v > * @ + + + + + + 9.9.9.9.9.9.9.9.9.9.9.9.9.9.9.9.9.",
"9.9.9.9.9.9.9.9.9.9.9.# * > 7 r n v v 0 9 > * * * & * > r M P o.O.B B B m v > * + o   X . X 9.9.9.9.9.9.9.9.9.9.9.9.9.9.9.9.9.9.",
"9.9.9.9.9.9.9.9.9.9.9.9.9.o # 7 9 7 4 9 9 * + o + ; r n n M N o.O.B m v b v > * # 9.9.9.9.9.9.9.9.9.9.9.9.9.9.9.9.9.9.9.9.9.9.9.",
"9.9.9.9.9.9.9.9.9.9.9.9.9.9.9.+ @ + + + # > 9 9 9 0 r M N N M M B B m n n v : * # 9.9.9.9.9.9.9.9.9.9.9.9.9.9.9.9.9.9.9.9.9.9.9.",
"9.9.9.9.9.9.9.9.9.9.9.9.9.9.9.9.  . . O # 2 b n n b m M o.B n n B B m n n v > * % 9.9.9.9.9.9.9.9.9.9.9.9.9.9.9.9.9.9.9.9.9.9.9.",
"9.9.9.9.9.9.9.9.9.9.9.9.9.9.9.9.9.9.9.# * 7 b n b b b m N N n M B O.m n n v > * # 9.9.9.9.9.9.9.9.9.9.9.9.9.9.9.9.9.9.9.9.9.9.9.",
"9.9.9.9.9.9.9.9.9.9.9.9.9.9.9.9.9.9.9.$ ; 7 r r m r r n n n r m B o.m b N N 9 * # 9.9.9.9.9.9.9.9.9.9.9.9.9.9.9.9.9.9.9.9.9.9.9.",
"9.9.9.9.9.9.9.# # % 9.9.9.9.9.9.9.9.9.# $ r r 7 : 9 r n r m M B N N n m B B 9 * # 9.9.9.9.9.9.9.9.9.9.9.9.9.9.9.9.9.9.9.9.9.9.9.",
"9.9.9.9.9.9.: : : : : 9.9.9.9.9.9.9.9.& ; > 7 ; @ : r n n M B B m v n n N N 7 * # 9.9.9.9.9.9.9.9.9.9.9.9.9.9.9.9.9.9.9.9.9.9.9.",
"9.9.9.9.# * 0 B B L 0 ; # 9.9.9.9.9.9.$ # + + $ > 9 r n r M o.B m n v n n v > * 9.9.9.* * % * 9.9.9.9.9.9.9.9.9.9.9.9.9.9.9.9.9.",
"9.9.9.9.# * v B +.O.B b 7 * 9.9.9.9.9.O O # ; : 7 7 r r r M o.B m v n n n v 4 * + o ; 0 n J A 3 9.9.9.9.9.9.9.9.9.9.9.9.9.9.9.9.",
"9.9.9.9.# ; 0 I O.O.O.o.m 9 : 9.9.9.9.+ @ ; 7 7 7 7 7 > 7 r M N n n v 0 9 4 * # @ # 7 B *.2.! 6 # 9.9.9.9.9.9.9.9.9.9.9.9.9.9.9.",
"9.9.9.9.# * v o.O.O.o.o.O.P b $ X X O ; > 7 4 7 7 7 7 ; + $ 0 n n v 9 4 * O o O ; 0 M o.$.:.! 6 # 9.9.9.9.9.9.9.9.9.9.9.9.9.9.9.",
"9.9.9.9.# ; 0 o.O.O.o.O.O.o.M 9 > ; : 9 r 9 7 7 4 7 7 $ o $ 9 n n v 9 4 ; ; * ; 7 v N B +.@.F 4 # 9.9.9.9.9.9.9.9.9.9.9.9.9.9.9.",
"9.9.9.9.9.= 8 n M o.O.O.O.O.B M b 0 0 0 0 9 7 7 4 > ; $ $ ; r n n v 0 9 7 7 7 7 0 v m B P O.m : & 9.9.9.9.9.9.9.9.9.9.9.9.9.9.9.",
"9.9.9.9.9.9.% * 0 P O.O.O.B B m b b b 9 7 7 7 7 > ; + ; 0 r r n n v v 0 7 7 7 7 0 v v n M B n : # 9.9.9.9.9.9.9.9.9.9.9.9.9.9.9.",
"9.9.9.9.9.9.# * 9 P +.O.B M m b b n b b r 9 4 * @ $ 4 r r n r n n 0 ; * : 7 7 7 7 9 r v n m 0 ; $ 9.9.9.9.9.9.9.9.9.9.9.9.9.9.9.",
"9.9.9.9.9.9.9.* > 0 b M B n n n r 7 > > > ; * $ ; 7 r n n n n n n 0 : * * * : 7 9 0 v v v 9 2 ; 9.9.9.9.9.9.9.9.9.9.9.9.9.9.9.9.",
"9.9.9.9.9.9.9.9.9.o * 9 r r r r 7 # o o O o + : r n n n n r r n v n n 0 * + $ > 7 r r 0 7 * & 9.9.9.9.9.9.9.9.9.9.9.9.9.9.9.9.9.",
"9.9.9.9.9.9.9.9.9.9.+ + + @ + @ + 9.9.+ # * > 9 r n r n n n n n v n n r 7 ; $ + + + # + @ 9.9.9.9.9.9.9.9.9.9.9.9.9.9.9.9.9.9.9.",
"9.9.9.9.9.9.9.9.9.9.9.9.    .   9.9.9.& & > 7 9 0 r n n n n n r r 0 0 0 9 4 * + o .     9.9.9.9.9.9.9.9.9.9.9.9.9.9.9.9.9.9.9.9.",
"9.9.9.9.9.9.9.9.9.9.9.9.9.9.9.9.9.9.9.$ & ; 4 7 7 r r r r r r r 7 7 7 7 7 4 ; $ $ 9.9.9.9.9.9.9.9.9.9.9.9.9.9.9.9.9.9.9.9.9.9.9.",
"9.9.9.9.9.9.9.9.9.9.9.9.9.9.9.9.9.9.9.# * : 7 7 4 7 7 7 7 7 7 7 7 7 7 7 7 2 : - # 9.9.9.9.9.9.9.9.9.9.9.9.9.9.9.9.9.9.9.9.9.9.9.",
"9.9.9.9.9.9.9.9.9.9.9.9.6.7.7.7.8.8.( 5 * : 4 7 7 7 4 7 7 4 7 7 4 7 4 4 7 2 * * Z  .8.8.7.7.6.6.9.9.9.9.9.9.9.9.9.9.9.9.9.9.9.9.",
"9.9.9.9.9.9.9.9.9.9.6.6.5.....| ..../ g * ; 7 7 7 7 7 7 4 7 7 7 7 7 7 7 7 7 ; * S { | ..X.| X.5.6.9.9.9.9.9.9.9.9.9.9.9.9.9.9.9.",
"9.9.9.9.9.9.9.6.6.6.6.6.{ _ c V C C z p * ; 4 7 4 4 7 4 7 7 4 4 7 4 4 7 7 4 * * a x C V V V _ | 6.6.6.6.6.9.9.9.9.9.9.9.9.9.9.9.",
"9.9.9.9.9.6.6.6.6.6...' C x x k c k k h a , : > 4 7 4 7 7 4 7 7 7 7 7 > > : < s h x x x k k V _ [ X.6.6.6.6.6.9.9.9.9.9.9.9.9.9.",
"9.9.9.9.6.6.6.5.X.| ` c x x x x x x k c j i * ; 4 7 7 7 7 7 4 7 4 7 7 > * * a x c c x x x x k k V ' | 5.6.6.6.9.9.9.9.9.9.9.9.9.",
"9.9.9.9.6.6.6.5.[ C x x x x x x c k c c j i * : 4 7 7 7 4 7 4 7 7 7 7 > * = s x x x x x x x x x x x ) } 6.6.6.9.9.9.9.9.9.9.9.9.",
"9.9.9.9.5.6.6.X.' x k x x x x x x x k c k j d < ; : 4 7 7 7 7 7 7 4 ; : p f l x x x x x c x x x k k V [ 6.6.6.9.9.9.9.9.9.9.9.9.",
"9.9.9.9.6.6.6.X.{ ` C c x x x x x x x x x c x d < , : : : : : : : : , i h k x x x x x x x x k k c C ` | 6.6.6.9.9.9.9.9.9.9.9.9.",
"9.9.9.9.6.6.6.6.6.X.[ C x x x x x x x x x x x c z s = * * * * * * , f k k k x x x x x x x x x x _ { 6.6.6.6.6.9.9.9.9.9.9.9.9.9.",
"9.9.9.9.9.9.6.6.6.6.X.| ` V x k k x x x x x x c k z h f h h h h h j k k V x x x x k k k k k C [ ..5.6.6.6.6.9.9.9.9.9.9.9.9.9.9.",
"9.9.9.9.9.9.9.6.6.6.6.6.X.[ _ ` ` ` _ c k k k k k k c x x x c c k k k k k k k x C _ ` ` ` ` [ 5.6.6.6.6.6.9.9.9.9.9.9.9.9.9.9.9.",
"9.9.9.9.9.9.9.9.9.6.6.6.6.6.X.6.6.6...` C c c c c C C c c C C c V C C C V V V C ] X.6.6.5.5.6.6.6.6.6.9.9.9.9.9.9.9.9.9.9.9.9.9.",
"9.9.9.9.9.9.9.9.9.9.9.9.9.6.6.6.6.6.6.X.....X...........| ......| ..| | | | | X.X.6.6.6.6.6.6.9.9.9.9.9.9.9.9.9.9.9.9.9.9.9.9.9.",
"9.9.9.9.9.9.9.9.9.9.9.9.9.9.6.6.7.6.X.7.7.7.6.6.7.6.7.6.6.7.6.6.6.7.6.6.6.6.6.6.6.6.9.6.6.6.9.9.9.9.9.9.9.9.9.9.9.9.9.9.9.9.9.9.",
"9.9.9.9.9.9.9.9.9.9.9.9.9.9.9.9.9.9.9.6.6.X.6.6.6.6.6.6.6.6.6.6.6.6.6.6.6.6.6.6.6.9.9.9.9.9.9.9.9.9.9.9.9.9.9.9.9.9.9.9.9.9.9.9."
};
