/* XPM */
static char *result[] = {
/* columns rows colors chars-per-pixel */
"64 64 165 2 ",
"   c #010000",
".  c #0E0906",
"X  c #100A07",
"o  c #140D08",
"O  c #190F0A",
"+  c #1B100B",
"@  c #23160E",
"#  c #271810",
"$  c #2B1B11",
"%  c #311F14",
"&  c #292713",
"*  c #342015",
"=  c #392317",
"-  c #3D2619",
";  c #3A341B",
":  c #442A1C",
">  c #492E1E",
",  c #4E3020",
"<  c #523322",
"1  c #593725",
"2  c #5C3926",
"3  c #633D29",
"4  c #194D15",
"5  c #1B5217",
"6  c #1E5F17",
"7  c #1D5618",
"8  c #1E5B19",
"9  c #165716",
"0  c #254C19",
"q  c #2D441A",
"w  c #3A4B1F",
"e  c #2F521D",
"r  c #265F1D",
"t  c #34531E",
"y  c #1F621A",
"u  c #21641C",
"i  c #246C1E",
"p  c #25741F",
"a  c #267D1F",
"s  c #266F20",
"d  c #267321",
"f  c #287722",
"g  c #277D21",
"h  c #297C23",
"j  c #277928",
"k  c #484B23",
"l  c #564827",
"z  c #5D4729",
"x  c #65422A",
"c  c #6B422C",
"v  c #61482A",
"b  c #71462F",
"n  c #704A2F",
"m  c #68522E",
"M  c #744730",
"N  c #764A31",
"B  c #7B4C33",
"V  c #6F5230",
"C  c #755533",
"Z  c #7B5A36",
"A  c #725932",
"S  c #814F35",
"D  c #855237",
"F  c #875438",
"G  c #8B5639",
"H  c #865B39",
"J  c #8F583B",
"K  c #945B3D",
"L  c #995F3F",
"P  c #9A5F40",
"I  c #9D6241",
"U  c #A16443",
"Y  c #27801F",
"T  c #278021",
"R  c #2A8425",
"E  c #2D8A27",
"W  c #2A822A",
"Q  c #2E8D28",
"!  c #2F9129",
"~  c #30952A",
"^  c #329B2C",
"/  c #2B8433",
"(  c #2E873B",
")  c #2F893C",
"_  c #2E8A32",
"`  c #308A3F",
"'  c #35A42F",
"]  c #36A730",
"[  c #36A930",
"{  c #2E8840",
"}  c #308A45",
"|  c #328C4D",
" . c #348E52",
".. c #348F59",
"X. c #36905A",
"o. c #38915B",
"O. c #398D60",
"+. c #379262",
"@. c #3B9464",
"#. c #3C966C",
"$. c #3E9975",
"%. c #3F9B7D",
"&. c #419973",
"*. c #439D7B",
"=. c #3E9C84",
"-. c #449E83",
";. c #4A9E8B",
":. c #449F95",
">. c #46A49C",
",. c #48A59E",
"<. c #47A290",
"1. c #49A7A3",
"2. c #4DA8A3",
"3. c #52AAA3",
"4. c #52ACAC",
"5. c #4CACBB",
"6. c #41A7B6",
"7. c #53AEB5",
"8. c #51AEBC",
"9. c #58AFB3",
"0. c #5BB1B6",
"q. c #55B1BE",
"w. c #5BB3BE",
"e. c #54B2C3",
"r. c #5CB4C1",
"t. c #5EB6CB",
"y. c #62B6C3",
"u. c #66B9C4",
"i. c #6BBBC6",
"p. c #65B9CA",
"a. c #6DBCC9",
"s. c #72BEC9",
"d. c #76C0CB",
"f. c #7CC3CC",
"g. c #7EC1C1",
"h. c #82C6CF",
"j. c #85C7D0",
"k. c #87C8D0",
"l. c #8BCAD2",
"z. c #8ECCD8",
"x. c #93CED5",
"c. c #98CFD7",
"v. c #95CFD9",
"b. c #98CFD8",
"n. c #97D0D7",
"m. c #99D0D7",
"M. c #9DD2D9",
"N. c #A3D5DC",
"B. c #A8D7DD",
"V. c #ABD9DF",
"C. c #AEDAE0",
"Z. c #B3DCE2",
"A. c #BADFE4",
"S. c #BDE1E6",
"D. c #C1E2E7",
"F. c #C4E4E9",
"G. c #CBE6EB",
"H. c #CFE8EC",
"J. c #D4EAEE",
"K. c #DBEDEF",
"L. c #DBEDF0",
"P. c #D7ECF0",
"I. c #E3EFEF",
"U. c #E2EFF0",
"Y. c None",
/* pixels */
"Y.Y.Y.Y.Y.Y.Y.Y.Y.Y.Y.Y.Y.Y.Y.Y.Y.Y.Y.Y.Y.Y.Y.Y.Y.Y.Y.Y.Y.Y.Y.Y.Y.Y.Y.Y.Y.Y.Y.Y.Y.Y.Y.Y.Y.Y.Y.Y.Y.Y.Y.Y.Y.Y.Y.Y.Y.Y.Y.Y.Y.Y.Y.Y.",
"Y.Y.Y.Y.Y.Y.Y.Y.Y.Y.Y.Y.Y.Y.Y.Y.Y.Y.Y.Y.Y.Y.Y.Y.Y.Y.Y.Y.Y.k.k.Y.Y.Y.Y.k.l.l.Y.Y.Y.Y.Y.Y.Y.Y.Y.Y.Y.Y.Y.Y.Y.Y.Y.Y.Y.Y.Y.Y.Y.Y.Y.Y.",
"Y.Y.Y.Y.Y.Y.Y.Y.Y.Y.Y.Y.Y.Y.Y.Y.Y.Y.Y.Y.Y.Y.Y.Y.Y.Y.k.Y.Y.x.D.N.k.k.k.V.H.F.m.Y.Y.Y.Y.Y.Y.Y.Y.Y.Y.Y.Y.Y.Y.Y.Y.Y.Y.Y.Y.Y.Y.Y.Y.Y.",
"Y.Y.Y.Y.Y.Y.Y.Y.Y.Y.Y.Y.Y.Y.Y.Y.Y.Y.Y.h.k.k.Y.Y.Y.c.D.N.h.x.H.H.C.x.S.J.K.J.m.Y.Y.k.Y.Y.Y.k.k.Y.Y.Y.Y.Y.Y.Y.Y.Y.Y.Y.Y.Y.Y.Y.Y.Y.",
"Y.Y.Y.Y.Y.Y.Y.Y.Y.Y.Y.Y.Y.Y.Y.Y.Y.Y.x.A.F.Z.l.h.N.F.J.G.S.F.J.L.J.F.J.K.K.J.F.N.c.A.N.h.c.A.b.h.Y.Y.Y.Y.Y.Y.Y.Y.Y.Y.Y.Y.Y.Y.Y.Y.",
"Y.Y.Y.Y.Y.Y.Y.Y.Y.Y.Y.Y.Y.Y.Y.Y.Y.b.A.J.L.A.x.C.G.L.J.K.I.I.K.J.K.U.K.I.I.K.L.G.F.H.c.c.D.K.G.C.l.Y.Y.Y.Y.Y.Y.Y.Y.Y.Y.Y.Y.Y.Y.Y.",
"Y.Y.Y.Y.Y.Y.Y.Y.Y.Y.Y.Y.Y.Y.Y.Y.h.N.K.I.I.J.A.H.L.L.K.K.K.I.K.I.K.K.K.I.I.I.K.J.P.K.D.F.K.K.U.A.k.Y.Y.Y.Y.Y.Y.Y.Y.Y.Y.Y.Y.Y.Y.Y.",
"Y.Y.Y.Y.Y.Y.Y.Y.Y.Y.Y.Y.Y.Y.Y.Y.B.C.V.J.I.I.L.I.K.J.I.I.I.I.I.I.I.K.K.I.I.I.K.K.I.I.I.K.J.J.A.V.Z.x.Y.Y.Y.Y.Y.Y.Y.Y.Y.Y.Y.Y.Y.Y.",
"Y.Y.Y.Y.Y.Y.Y.Y.Y.Y.Y.Y.Y.Y.c.V.G.G.C.H.K.I.I.I.K.L.K.I.I.K.K.I.I.I.I.I.I.K.K.K.I.I.I.K.K.K.Z.A.J.Z.M.Y.Y.Y.Y.Y.Y.Y.Y.Y.Y.Y.Y.Y.",
"Y.Y.Y.Y.Y.Y.Y.Y.Y.Y.Y.Y.Y.Y.f.Z.H.L.L.K.K.J.I.K.K.J.J.L.K.J.K.K.K.K.I.I.L.J.J.K.I.I.L.J.K.I.I.P.K.L.B.j.Y.Y.Y.Y.Y.Y.Y.Y.Y.Y.Y.Y.",
"Y.Y.Y.Y.Y.Y.Y.Y.Y.Y.Y.Y.Y.Y.q.a.N.A.A.K.K.K.K.K.K.K.J.J.K.K.J.J.J.J.J.K.J.P.J.K.L.J.K.J.K.K.F.G.K.C.b.Y.Y.Y.Y.Y.Y.Y.Y.Y.Y.Y.Y.Y.",
"Y.Y.Y.Y.Y.Y.Y.Y.Y.Y.Y.Y.Y.Y.Y.w.i.h.N.G.L.I.I.K.K.K.K.J.K.I.K.J.J.K.K.K.I.K.J.K.K.J.I.L.K.K.C.N.N.u.8.Y.Y.Y.Y.Y.Y.Y.Y.Y.Y.Y.Y.Y.",
"Y.Y.Y.Y.Y.Y.Y.Y.Y.Y.Y.Y.Y.u.s.c.s.h.J.G.G.K.I.I.K.K.I.K.K.I.K.J.K.I.K.K.I.K.K.K.I.K.J.K.I.I.L.V.s.c.s.w.Y.Y.Y.Y.Y.Y.Y.Y.Y.Y.Y.Y.",
"Y.Y.Y.Y.Y.Y.Y.Y.Y.Y.Y.Y.5.f.F.J.V.V.H.c.Z.L.I.I.I.I.K.K.I.I.K.K.K.J.I.I.I.I.I.K.K.K.K.K.I.K.H.H.J.G.N.s.8.Y.Y.Y.Y.Y.Y.Y.Y.Y.Y.Y.",
"Y.Y.Y.Y.Y.Y.Y.Y.Y.Y.Y.Y.Y.Y.i.F.J.G.D.m.A.I.K.H.J.I.I.K.K.I.I.K.L.J.I.I.I.I.I.I.J.J.J.K.I.K.V.B.F.N.i.8.Y.Y.Y.Y.Y.Y.Y.Y.Y.Y.Y.Y.",
"Y.Y.Y.Y.Y.Y.Y.Y.Y.Y.Y.q.8.y.x.G.B.s.u.A.K.J.G.M.Z.L.P.J.J.J.I.I.K.J.J.K.I.I.I.I.I.J.M.N.J.J.K.Z.c.D.N.s.8.Y.Y.Y.Y.Y.Y.Y.Y.Y.Y.Y.",
"Y.Y.Y.Y.Y.Y.Y.Y.q.5.r.f.y.u.k.l.i.y.l.F.C.k.x.S.K.I.I.K.A.m.G.K.A.n.G.K.J.K.I.K.J.J.N.k.m.G.J.S.h.y.s.f.q.q.Y.Y.Y.Y.Y.Y.Y.Y.Y.Y.",
"Y.Y.Y.Y.Y.Y.Y.q.d.h.k.k.k.d.w.q.d.k.k.x.x.f.w.h.S.I.J.J.J.F.m.S.A.x.G.C.N.J.K.J.J.J.J.n.y.k.n.l.h.h.u.y.h.h.i.5.q.Y.Y.Y.Y.Y.Y.Y.",
"Y.Y.Y.Y.Y.Y.Y.Y.q.a.n.Z.n.k.d.q.d.k.k.k.k.d.q.f.C.G.M.D.K.G.x.k.N.G.J.N.m.J.K.C.N.J.K.C.d.r.q.q.y.h.u.y.k.Z.m.h.f.r.Y.Y.Y.Y.Y.Y.",
"Y.Y.Y.Y.Y.Y.Y.q.n.C.C.n.V.N.k.f.y.i.k.u.w.u.f.k.n.n.l.D.D.x.y.d.B.J.N.Z.H.J.K.V.k.m.G.S.f.q.i.f.f.y.u.x.Z.m.x.f.r.Y.Y.Y.Y.Y.Y.Y.",
"Y.Y.Y.Y.Y.Y.r.f.C.F.S.C.S.S.C.l.f.a.y.s.y.q.y.f.l.f.u.l.h.w.d.k.x.m.l.c.C.J.V.f.u.k.m.c.k.f.u.d.h.f.m.A.S.Z.m.l.M.x.a.5.Y.Y.Y.Y.",
"Y.Y.Y.Y.Y.5.u.V.S.G.H.F.D.Z.M.V.C.m.f.B.x.u.q.f.f.u.d.y.u.d.u.f.f.y.y.d.x.M.s.q.q.y.f.k.h.y.i.l.V.l.x.N.D.H.S.Z.D.S.h.5.Y.Y.Y.Y.",
"Y.Y.Y.Y.Y.Y.y.f.C.F.G.H.F.Z.V.S.V.N.V.M.x.f.q.r.u.f.B.j.l.N.f.u.u.u.q.a.x.k.w.w.d.s.i.u.y.d.f.n.N.B.B.Z.H.G.F.C.f.f.s.Y.Y.Y.Y.Y.",
"Y.Y.Y.Y.Y.Y.u.c.Z.F.H.J.H.G.D.D.Z.S.S.V.x.h.a.i.k.V.N.l.M.S.l.d.h.N.f.u.u.u.a.f.k.k.d.u.d.k.k.x.N.S.G.J.J.H.H.S.k.k.d.Y.Y.Y.Y.Y.",
"Y.Y.Y.Y.Y.f.N.H.H.J.P.P.H.H.G.D.G.H.G.D.C.M.l.M.S.Z.k.n.Z.S.N.N.C.S.n.d.u.a.h.n.N.N.N.n.l.M.N.C.F.G.H.H.K.J.J.J.J.G.V.f.r.Y.Y.Y.",
"Y.Y.Y.Y.5.j.C.S.G.H.H.J.F.G.G.D.D.H.J.G.D.S.N.S.F.S.M.S.F.G.F.F.D.S.N.x.k.k.M.C.F.G.G.S.B.S.F.G.F.H.F.S.H.J.J.H.H.Z.N.k.r.Y.Y.Y.",
"Y.Y.Y.Y.Y.6.y.C.S.Z.Z.G.F.Z.C.F.J.J.J.P.G.F.G.J.H.G.F.F.G.J.J.F.D.F.D.V.m.M.S.F.G.H.J.G.F.F.J.P.J.G.F.S.C.G.F.S.C.x.u.5.Y.Y.Y.Y.",
"Y.Y.Y.Y.Y.a.a.f.Z.C.m.C.Z.N.N.H.J.J.J.J.F.F.J.P.J.P.J.G.H.J.J.D.F.J.G.F.F.D.F.G.G.S.J.J.F.H.J.H.J.J.G.Z.m.V.S.Z.k.f.d.a.Y.Y.Y.Y.",
"Y.Y.Y.Y.:.g.n.u.N.F.Z.z.h.M.F.H.F.F.H.F.D.D.F.H.J.J.J.J.J.H.S.S.S.F.J.J.H.G.H.G.D.F.H.J.J.F.Z.S.F.G.S.S.S.x.B.S.n.s.k.x.3.Y.Y.Y.",
"Y.Y.Y.8 p $.r.k.Z.D.C.j.l.N.D.D.S.S.S.H.H.V.l.V.S.F.J.J.G.D.S.n.N.J.J.G.F.J.F.H.J.H.S.F.H.F.M.M.S.Z.M.M.Z.l.N.F.S.S.z.1./ y 7 Y.",
"Y.4 6 h / -.i.l.C.N.f.y.N.D.S.H.B.l.l.C.D.S.l.k.V.J.D.D.S.S.k.h.M.S.J.F.F.J.J.J.H.S.n.M.F.H.F.C.k.h.B.Z.k.y.a.k.h.Z.v.2.{ R i 4 ",
"Y.4 6 / <.h.S.Z.s.5.u.Z.J.Z.c.A.S.V.l.l.V.D.S.l.N.S.S.D.V.h.q.d.N.S.D.S.F.J.J.H.Z.z.l.B.S.S.F.C.f.r.n.C.l.k.i.5.w.N.B.d.4.| y 5 ",
"Y.Y.Y.7 j *.p.k.k.u.u.Z.F.N.x.Z.D.V.z.k.B.Z.l.r.a.b.A.D.V.f.r.x.S.S.F.M.M.F.H.G.Z.l.V.S.Z.n.C.m.r.f.k.m.S.n.y.w.h.l.d.1.( y 4 Y.",
"Y.Y.Y.7 p *.8.w.q.i.l.S.N.d.w.k.l.N.V.u.l.Z.z.C.j.y.l.Z.V.j.h.u.h.D.S.M.n.S.F.V.f.r.N.Z.z.k.Z.m.8.e.q.u.l.l.k.d.w.q.e.1./ y 5 Y.",
"Y.Y.6 f g %.,.} >.a.l.x.i.-. .7.r.a.k.r.q.a.k.x.s.8.w.h.x.h.y.s.n.S.S.S.C.n.S.k.r.h.C.V.x.Z.N.k.f.r.#.o.w.f.z.f.7.X.$.1./ a y 7 ",
"Y.4 6 T E ) ` T ( -.t.r.e.%.T { ) $.0.o.=.y.k.a.-.X.5.f.f.4. .<.d.n.n.Z.M.y.k.d.r.k.c.f.u.l.d.r.9.X.T  .8.t.r.3.| R / ) E R i 4 ",
"5 s R R Q R R h Y ( | | | ( T g g / } W / &.0.#./ W | 3.t.2.( =.e.p.j.n.x.d.p.-.@.w.p.;.O.0.*.| { W T _ | | | { W T R R E Q T d ",
"Y.8 d Q ^ ' ^ E T T Y R E R T W R R T R R W  .W T R T } X.| W { ..@.0.p.p.y.#.( W  .X.` W | / Y T R E E R T Y R E E E ! ^ R s y ",
"Y.4 8 f ! ' ' Q R R E E ^ ~ R T R Q E E E R h R E E E T g T E T a R  .+.+.X._ T T R Y R E T R R W Q ! ^ E E R E ^ ! R h ~ h 8 4 ",
"4 i d h E E Q E ^ ^ ^ E ! ! E E ! ! E ^ ~ E R R ~ ^ E E E R E R T R Y Y Y Y E ~ ~ E ^ ^ ^ E R ! ^ ^ [ ' ^ ^ ! ! ' ' ! h h j d y ",
"5 i R E d i p E ^ ] ] ^ Q Q ^ ! ] ] ^ ^ ! Q ^ ^ ' ' ^ E E ~ ~ E Q ~ E h E ^ Q ! ^ ^ ' ' ~ Q ~ ' [ ^ ] [ [ ^ ^ ^ [ ' ~ d u d h s ",
"4 8 i h 8 u h h R ^ ] [ ! ! ' [ [ [ ' ! E ! ^ [ [ [ [ ~ E ^ [ ^ ^ ^ Q E E ^ ^ E ! ^ [ ' ~ E ^ [ ^ ^ ~ ] ] ~ Q ~ ^ R d u 5 u u u ",
"Y.Y.7 u 8 i h h R ^ [ ^ Q R Q ] [ ' ^ ! R R T ^ ' [ ^ Q ^ [ ' [ ] ! Q E Q ! ' ' ! E ^ ' ] ~ ^ ~ Q ^ Q E ^ ! h h R d i i 8 6 r 4 ",
"Y.Y.Y.5 i s s E R Q ^ Q d f ! ' [ ^ E R h h d R ^ ^ Q E ~ ' [ [ ] ^ Q Q ^ [ [ [ ' Q E ^ ' ' ~ R R E h d R E E h u i i u s 8 4 Y.",
"Y.Y.Y.7 f i 8 f r i E R d d E ^ ~ R R s Q ^ Q R R Q ~ E R Q [ [ ^ Q Q ^ ] [ [ ! R E ^ ^ R E E h d E Q R s h h u 7 u 6 7 u 8 Y.Y.",
"Y.Y.Y.Y.5 Y.Y.5 u h T s i s d R E h s s R E E d h ~ ^ h d E ' [ ^ E ' ! Q ' ! f p R Q h d R d s d W Q h u s d s s 5 5 Y.5 Y.Y.Y.",
"Y.Y.Y.Y.Y.Y.Y.5 u s i s 7 8 s R h s i R E R d R Q R d i s d E ^ ! d R h d E E f i p R h s i i d Q Q h u 5 s h R s 5 Y.Y.Y.Y.Y.Y.",
"Y.Y.Y.Y.Y.Y.Y.Y.4 8 s i 7 8 i s R d r u h h i s h Q R d i d E E Q E d h Q E d i i i R E R s 8 8 i R d u 7 h h u 5 Y.Y.Y.Y.Y.Y.Y.",
"Y.Y.Y.Y.Y.Y.Y.Y.Y.Y.5 5 Y.Y.7 i i s i 7 u u 7 u h R d 7 r i i T Q R d i d E d y 8 i i h h 8 u i i i r 5 Y.5 5 5 Y.Y.Y.Y.Y.Y.Y.Y.",
"Y.Y.Y.Y.Y.Y.Y.Y.Y.Y.Y.Y.Y.Y.Y.5 5 5 5 Y.5 8 u i d d i 8 5 5 5 f R i 7 u d d R f u 7 u d i 5 4 5 5 5 Y.Y.Y.Y.Y.Y.Y.Y.Y.Y.Y.Y.Y.Y.",
"Y.Y.Y.Y.Y.Y.Y.Y.Y.Y.Y.Y.Y.Y.Y.Y.Y.Y.Y.Y.Y.Y.5 7 y i i 7 w l 0 u i 5 4 y u 8 i d r : 0 7 5 Y.Y.Y.Y.Y.Y.Y.Y.Y.Y.Y.Y.Y.Y.Y.Y.Y.Y.Y.",
"Y.Y.Y.Y.Y.Y.Y.Y.Y.Y.Y.Y.Y.Y.Y.Y.Y.Y.Y.Y.Y.Y.Y.; q 7 7 k n B v e e z z t t m e 9 0 > & Y.Y.Y.Y.Y.Y.Y.Y.Y.Y.Y.Y.Y.Y.Y.Y.Y.Y.Y.Y.Y.",
"Y.Y.Y.Y.Y.Y.Y.Y.Y.Y.Y.Y.Y.Y.Y.Y.Y.Y.Y.Y.Y.Y.Y.- v Z m F J F S Z H K D n Z K C A V > + Y.Y.Y.Y.Y.Y.Y.Y.Y.Y.Y.Y.Y.Y.Y.Y.Y.Y.Y.Y.Y.",
"Y.Y.Y.Y.Y.Y.Y.Y.Y.Y.Y.Y.Y.Y.Y.Y.Y.Y.Y.Y.Y.o = 2 B K P K K K B F K G B G K J K L D x > @ Y.Y.Y.Y.Y.Y.Y.Y.Y.Y.Y.Y.Y.Y.Y.Y.Y.Y.Y.Y.",
"Y.Y.Y.Y.Y.Y.Y.Y.Y.Y.Y.Y.Y.Y.Y.Y.Y.Y.    Y.+ > c G K K K K G S B N N B G K K K K K B < $ Y.    Y.Y.Y.Y.Y.Y.Y.Y.Y.Y.Y.Y.Y.Y.Y.Y.Y.",
"Y.Y.Y.Y.Y.Y.Y.Y.Y.Y.Y.Y.Y.Y.Y.Y.Y.  Y.Y.+ : c G K G B S F S B B B B B S D D B D K K N < $   Y.  Y.Y.Y.Y.Y.Y.Y.Y.Y.Y.Y.Y.Y.Y.Y.Y.",
"Y.Y.Y.Y.Y.Y.Y.Y.Y.Y.Y.Y.Y.Y.Y.Y.  Y.  @ , b K I P G B b N B D J K K F B B b B D K I I B 2 * . Y.    Y.Y.Y.Y.Y.Y.Y.Y.Y.Y.Y.Y.Y.Y.",
"Y.Y.Y.Y.Y.Y.Y.Y.Y.Y.Y.Y.Y.Y.Y.Y.Y.X % 2 S P U I I K S x c B I I K K U G c 3 N G P I U I J x : +     Y.Y.Y.Y.Y.Y.Y.Y.Y.Y.Y.Y.Y.Y.",
"Y.Y.Y.Y.Y.Y.Y.Y.Y.Y.Y.Y.Y.Y.Y.Y.Y.O : c B F K P G B 3 , 2 D K K G K K G c > 2 b D K K G D M < #     Y.Y.Y.Y.Y.Y.Y.Y.Y.Y.Y.Y.Y.Y.",
"Y.Y.Y.Y.Y.Y.Y.Y.Y.Y.Y.Y.Y.Y.Y.Y.Y.Y.  * = > 3 c c 2 - = , c B K U I D b 1 - = < c b c < * = + Y.Y.Y.Y.Y.Y.Y.Y.Y.Y.Y.Y.Y.Y.Y.Y.Y.",
"Y.Y.Y.Y.Y.Y.Y.Y.Y.Y.Y.Y.Y.Y.Y.Y.Y.Y.Y.Y.Y.O - - : *   Y.@ : 3 F K K c < %   Y.$ - - - $ Y.Y.Y.Y.Y.Y.Y.Y.Y.Y.Y.Y.Y.Y.Y.Y.Y.Y.Y.Y.",
"Y.Y.Y.Y.Y.Y.Y.Y.Y.Y.Y.Y.Y.Y.Y.Y.Y.Y.Y.Y.Y.Y.            Y.. - 2 c 3 > @ Y.            Y.Y.Y.Y.Y.Y.Y.Y.Y.Y.Y.Y.Y.Y.Y.Y.Y.Y.Y.Y.Y.",
"Y.Y.Y.Y.Y.Y.Y.Y.Y.Y.Y.Y.Y.Y.Y.Y.Y.Y.Y.Y.Y.Y.Y.Y.Y.Y.          * > - o Y.      Y.Y.Y.Y.Y.Y.Y.Y.Y.Y.Y.Y.Y.Y.Y.Y.Y.Y.Y.Y.Y.Y.Y.Y.Y.",
"Y.Y.Y.Y.Y.Y.Y.Y.Y.Y.Y.Y.Y.Y.Y.Y.Y.Y.Y.Y.Y.Y.Y.Y.Y.Y.Y.          .             Y.Y.Y.Y.Y.Y.Y.Y.Y.Y.Y.Y.Y.Y.Y.Y.Y.Y.Y.Y.Y.Y.Y.Y.Y."
};
