/* XPM */
static char *result[] = {
/* columns rows colors chars-per-pixel */
"64 64 79 1 ",
"  c #000000",
". c #080603",
"X c #0F0C05",
"o c #171207",
"O c #1A1408",
"+ c #261E0C",
"@ c #29200D",
"# c #352B11",
"$ c #392D12",
"% c #2C3C14",
"& c #3F3114",
"* c #413315",
"= c #473817",
"- c #4A3917",
"; c #4B3B18",
": c #523F1A",
"> c #154711",
", c #1F4714",
"< c #164913",
"1 c #194E15",
"2 c #1A5016",
"3 c #1E5519",
"4 c #1F591A",
"5 c #214E17",
"6 c #2B4A17",
"7 c #2F4B18",
"8 c #344416",
"9 c #334C19",
"0 c #3A4F1A",
"q c #23541A",
"w c #225C1C",
"e c #295F1F",
"r c #25611F",
"t c #276320",
"y c #296522",
"u c #2C6B24",
"i c #306E27",
"p c #316F28",
"a c #2E7227",
"s c #2F7328",
"d c #307227",
"f c #327229",
"g c #357B2C",
"h c #387E2E",
"j c #434419",
"k c #4D421A",
"l c #54421B",
"z c #5A461C",
"x c #50491C",
"c c #5E491D",
"v c #624C1F",
"b c #654F20",
"n c #675121",
"m c #6B5422",
"M c #705723",
"N c #745B24",
"B c #37812E",
"V c #39832F",
"C c #3B8531",
"Z c #3E8B33",
"A c #408F35",
"S c #429336",
"D c #449638",
"F c #48973D",
"G c #46993A",
"H c #499D3D",
"J c #4CA23F",
"K c #4B9F40",
"L c #4DA441",
"P c #50A744",
"I c #51AA44",
"U c #55B047",
"Y c #56B249",
"T c #58B54B",
"R c #5CBB4E",
"E c #5EBE50",
"W c #5FC051",
"Q c #60C252",
"! c None",
/* pixels */
"!!!!!!!!!!!!!!!!!!!!!!!!!!!!2wpCCiw1!!!!!!!!!!!!!!!!!!!!!!!!!!!!",
"!!!!!!!!!!!!!!!!!!!!!!!!!!!!1uALLAu1!!!!!!!!!!!!!!!!!!!!!!!!!!!!",
"!!!!!!!!!!!!!1344444!!!!!!!!4BIEEIB4!!!!!!!!4444432!!!!!!!!!!!!!",
"!!!!!!!!!!!!!1tZZZZVw22!!!!4CLEEEEIC4!!!!224VZZZZr2!!!!!!!!!!!!!",
"!!!!!!!!!!!!!!wsDGGDgsu<<!!wZLUEEULZw!!<1usBDHHZsr!!!!!!!!!!!!!!",
"!!!!!!!!!!!!!!!4gZDDLLKpft<4ZDJYYJDZ4>tfsDPJGGZg4!!!!!!!!!!!!!!!",
"!!!!!!!!!!!!!!!!2gDKTEEERB24CGDSSDDZ42VERRERHZf3!!!!!!!!!!!!!!!!",
"!!!!!!!!!211212!!3gTEEEEWRZ3fZZffZZs3ZTEWEEWRB3!!212121!!!!!!!!!",
"!!!!!!1<<hSSADh<<wpKTEEEEWIgepgpihfrgPQRWWWRKp3><hSSSSB<<1!!!!!!",
"!!!!!rusfLQWWQPssuruKREEWTIZ4tppifr3ZIRWEWRHutussLQWWQLsfur!!!!!",
"!!!44BIREEEEEEEERB3wuKTEELDCwtpppiewZGLRERFuw4gREEEEEEWRTLh44!!!",
"!1yZZZZLRWEEEEEEETILw4CRLDKZpweppwwfZDDLRC3rKUYWEEEEEEWWLGZZCy1!",
"!<yGGZGJPIYWEEEEEWWRKZCVZGZVfw4pfqqfhSGShCZGEWWEEEEEWUPJGGDGGr1!",
"!rgGGKZCBgCKEEEEEEWWEEDtgZCppewyywtpphZgtFWWWEEEEEEEJZBgBZGGGgr!",
"1gSZZZg3332tPTYTEEEERLGZtyppppy23tppppywZDJREEEETYTPr3323gZSZSg2",
"2BBr44tyuuuutttpYWERLDGZZywpppy12yfppryZDGGJRWWYstyyyuuuur4rrVg2",
"2ry22wydfffiyretghZIKDDDKpweipy22yipeefFGDDDLAhgterepsfppuw1<ut1",
"21!!2ruiyyyyyyyt43tVZFGDAht3ipt22yfi2thADDDDCt3wttyttyyyiie2!!12",
"!!!!!1wuw4w4qw4wuir4ZSZZfpyquit22tiu3yffASSCwtuuwwwww44wuw1!!!!!",
"!!!!111eKIPPPIIKe323sgghpppy43322334ypiffggf323rKIPPPIIKe111!!!!",
"!!<3sfgDRWWQWEQRhsirwwyipppu3ww21ww2iiipitwwrusBTWWWWWWEZBgs3<!!",
"!rraSGPWEEEEEEEUGFZiw3ryppppweyqqttwiiipuwqwiZGFYEEEWWEEWPDZutt!",
"2gZZSSLREEEEEEUDGDZiipyqupiiuwwuiwwiiiiyqyiipZDDDUEEEEEEWJGSZSs2",
"24ruZGGJEEEEEWUSDGZpppiy43434ey33yt33w3wuiiffCGDDYWEEEWRLGFZuw42",
"!!!3uagJRWWWWTLFGZhfpyew1112rrreewer2<12wwtifhZDDLTQWEWEJgua2!!!",
"!!!!11rVHTWRLZCZBuyyyw3wq43wywrppewyw444w3etyypVZCZLEWTHCr12!!!!",
"!!!!!!!33GRIy3riw4w33ufuppii3effspy3upppify333qwpw2tIED33!!!!!!!",
"!!!!!!!!!yuyyyrrHPFCVZCdpiii3tgZZhe3upppsCZCCHIKwtuyutt!!!!!!!!!",
"!!!!!!!!!4weituARQYDGGSVfiiruhZDDZgutupfVZGGDTWEAuypewq!!!!!!!!!",
"!!!!!!!!rsgfyyZEWWYJDDDSfit4DHDDDAKKwwffDGGGKTEEWZyyigsr!!!!!!!!",
"!!!!!!!wZSCuwFEEEEETGDDSgityULFGFDPUyypfZGDGTEEEEEDwuZSZw!!!!!!!",
"!!!!!!tZSfwrHTEEEEWRHSDDAupLETTTTTRRPpuAGGZFEEEEEETKr4sDZy!!!!!!",
"!!!!!1wssr<rJRWWWQRPGGZas4gQEEEEEEEEEg3sdZGGIRWWWWRJ4>rssr2!!!!!",
"!!!!!!222!!rZITWWIJDZVd431fWEEEEEEEEEf233dVZSHIWWRIZy!!211!!!!!!",
"!!!!!!!!!1rDGDJTTguZr3riiwfREEEEEEEEEf3iur3rZagRRJDDSu1!!!!!!!!!",
"!!!!!!!!!1uDDGZuur!rBVgsuwuLRQEEEEEELuwiagZBr!ryuZGDDy1!!!!!!!!!",
"!!!!!!!!!<tDGBy1<!!3ZJZBfqyGITQEWWRPFt3sVSJZ3!!<<rBGDr1!!!!!!!!!",
"!!!!!!!!!wdSZt!!!!4yZGGDhyaCSITTTTIGCathZGDZy4!!!!rZDg4!!!!!!!!!",
"!!!!!!!!1gGZw!!!!1yZDDGGZSsrZGDFGGGZrsSSGDDDSy<!!!!rZDg1!!!!!!!!",
"!!!!!!!!2gZr!!!!!1uGDDGZar42fADDDDZs34ruZGDDDu1!!!!!rCB1!!!!!!!!",
"!!!!!!!!2ya!!!!!!1uGGBsa9873yhADDZhu2689usVGGu1!!!!!!uy2!!!!!!!!",
"!!!!!!!!22!!!!!!!1rCZe,6l:jqyphAZhiyqj:l7,tCCt1!!!!!!!22!!!!!!!!",
"!!!!!!!!!!!!!!!!!2242%&kl::jqtifffyqkl:lk&%3422!!!!!!!!!!!!!!!!!",
"!!!!!!!!!!!!!!!!!!!!!#*l:::k6tfiift5k:::l&#!!!!!!!!!!!!!!!!!!!!!",
"!!!!!!!!!!!!!!!!!!!!!=lzkl:k5tffify5k::lzl=!!!!!!!!!!!!!!!!!!!!!",
"!!!!!!!!!!!!!!!!!!!!&lnbzl:k6euiiir6k:lznml#!!!!!!!!!!!!!!!!!!!!",
"!!!!!!!!!!!!!!!!!!!!#zmnnzllk9wfie7kl:zbnml$!!!!!!!!!!!!!!!!!!!!",
"!!!!!!!!!!!!!!!!!!!!#zNnnvvvbk9439kbbcbnnMc$!!!!!!!!!!!!!!!!!!!!",
"!!!!!!!!!!!!!!!!!!!!$lmNMmmnnvx00xvmnmmMNml$!!!!!!!!!!!!!!!!!!!!",
"!!!!!!!!!!!!!!!!!!!!$-vmMmmmmMmmmmmmmmmMMv=$!!!!!!!!!!!!!!!!!!!!",
"!!!!!!!!!!!!!!!!!!!!$lvzlmNNNNNNNNNNNNmlzvl#!!!!!!!!!!!!!!!!!!!!",
"!!!!!!!!!!!!!!!!!!!!$lncvvcccccccvcccvcvcnl$!!!!!!!!!!!!!!!!!!!!",
"!!!!!!!!!!!!!!!!!!!!$zmmnczzzzzzzzzzzzcbnmz$!!!!!!!!!!!!!!!!!!!!",
"!!!!!!!!!!!!!!!!!!!!#cMmmmmnnnmnnnbmmmmmmNc#!!!!!!!!!!!!!!!!!!!!",
"!!!!!!!!!!!!!!!!!!!!#;vNNNMnnnnnnnnnnMNNNv=#!!!!!!!!!!!!!!!!!!!!",
"!!!!!!!!!!!!!!!!!!!X#lvvvcnNNNNNNNNNNvvvvbl#X!!!!!!!!!!!!!!!!!!!",
"!!!!!!!!!!!!!!!!!! .+=zzzzcmmmmmmmmmnczzzz=+. !!!!!!!!!!!!!!!!!!",
"!!!!!!!!!!!!!!!!!  ! @=nmmvlllllllllzvmmm;+ !  !!!!!!!!!!!!!!!!!",
"!!!!!!!!!!!!!!!!   ! @=mNNMbbbbbvnbvnMNNm=@ !   !!!!!!!!!!!!!!!!",
"!!!!!!!!!!!!!!!    ! @;mMMmnnMNNNNMmnmMmm;@ !    !!!!!!!!!!!!!!!",
"!!!!!!!!!!!!!!!      O&lmMMMnMMMMMMnmMMmz$O      !!!!!!!!!!!!!!!",
"!!!!!!!!!!!!!!!      !o&bMNNmmmmmmmmNNMn&O!      !!!!!!!!!!!!!!!",
"!!!!!!!!!!!!!!!!     ! o$*lNNNNNNNNNNl*&o !     !!!!!!!!!!!!!!!!",
"!!!!!!!!!!!!!!!!!     !.oo#kl;llkl:l;#Oo !     !!!!!!!!!!!!!!!!!"
};
