/* XPM */
static char *result[] = {
/* columns rows colors chars-per-pixel */
"64 64 143 2 ",
"   c #010101",
".  c #080704",
"X  c #0B0905",
"o  c #0F0D08",
"O  c #120F09",
"+  c #16120B",
"@  c #1B160E",
"#  c #1F1A10",
"$  c #241D12",
"%  c #24260F",
"&  c #252B0F",
"*  c #272013",
"=  c #2A2315",
"-  c #252E12",
";  c #2F2718",
":  c #342B1A",
">  c #382F1C",
",  c #273114",
"<  c #283316",
"1  c #2A351A",
"2  c #2D391E",
"3  c #3D331E",
"4  c #2E3C21",
"5  c #3B3521",
"6  c #313D22",
"7  c #3A3B25",
"8  c #373F2B",
"9  c #383F28",
"0  c #42351F",
"q  c #423620",
"w  c #453923",
"e  c #4A3D25",
"r  c #403F29",
"t  c #2B4217",
"y  c #2C431B",
"u  c #2C4A1D",
"i  c #2E4422",
"p  c #2F4923",
"a  c #334127",
"s  c #35452B",
"d  c #39462C",
"f  c #37492F",
"g  c #38482E",
"h  c #2E5120",
"j  c #315126",
"k  c #315925",
"l  c #325529",
"z  c #3C4530",
"x  c #354B32",
"c  c #3A4C33",
"v  c #3C4E38",
"b  c #3A5435",
"n  c #3C5D36",
"m  c #3B533B",
"M  c #3B5B3B",
"N  c #36642D",
"B  c #356A2A",
"V  c #376331",
"C  c #3D6336",
"Z  c #3A613C",
"A  c #3D6C3B",
"S  c #3A7032",
"D  c #397B32",
"F  c #3C733A",
"G  c #4E4127",
"H  c #43452C",
"J  c #4C4429",
"K  c #44482E",
"L  c #504227",
"P  c #534529",
"I  c #57482B",
"U  c #5C4C2D",
"Y  c #404A30",
"T  c #604F2F",
"R  c #604F30",
"E  c #635131",
"W  c #695634",
"Q  c #6D5A36",
"!  c #715D39",
"~  c #40703E",
"^  c #76613B",
"/  c #7B653E",
"(  c #7F683F",
")  c #3E5D45",
"_  c #3F5F48",
"`  c #3E6147",
"'  c #3C6C43",
"]  c #3E6348",
"[  c #3E6C49",
"{  c #3D7347",
"}  c #3E7B42",
"|  c #3E744A",
" . c #3E7C4C",
".. c #417346",
"X. c #427B43",
"o. c #427749",
"O. c #407F4C",
"+. c #7F6840",
"@. c #816A40",
"#. c #3F853A",
"$. c #3E8F39",
"%. c #3F913A",
"&. c #40813D",
"*. c #41953D",
"=. c #42A13F",
"-. c #4FCA3F",
";. c #50CC3F",
":. c #53D53C",
">. c #55D83C",
",. c #58DA3F",
"<. c #3F804C",
"1. c #438345",
"2. c #448B47",
"3. c #41844C",
"4. c #448D4C",
"5. c #449346",
"6. c #449B42",
"7. c #46924C",
"8. c #469C4A",
"9. c #489D4E",
"0. c #45A545",
"q. c #46AD46",
"w. c #46A448",
"e. c #46A948",
"r. c #46B046",
"t. c #48B545",
"y. c #4ABC43",
"u. c #47B548",
"i. c #48B848",
"p. c #4DC541",
"a. c #4FC940",
"s. c #5CDD42",
"d. c #62E247",
"f. c #65E54A",
"g. c #68E74C",
"h. c #6BEA4F",
"j. c #6EEC51",
"k. c #71EF53",
"l. c #74F257",
"z. c #76F358",
"x. c #7BF75C",
"c. c #7CF85D",
"v. c None",
/* pixels */
"v.v.v.v.v.v.v.v.v.v.v.v.v.v.v.v.v.v.v.v.v.v.c 1.w.r.r.r.q.r.r.r.r.r.r.r.r.q.q.r.e.5.n d v.v.v.v.v.v.v.v.v.v.v.v.v.v.v.v.v.v.v.v.",
"v.v.v.v.v.v.v.v.v.v.v.v.v.v.v.v.v.v.v.g d n 2.w.r.r.r.-.:.:.:.:.a.:.:.:.:.:.y.r.r.e.5.F g g v.v.v.v.v.v.v.v.v.v.v.v.v.v.v.v.v.v.",
"v.v.v.v.v.v.v.v.v.v.v.v.v.v.v.v.v.v.f X.5.0.e.q.y.:.:.:.d.z.z.z.x.z.l.z.h.>.:.;.-.q.q.w.6.2.n s v.v.v.v.v.v.v.v.v.v.v.v.v.v.v.v.",
"v.v.v.v.v.v.v.v.v.v.v.v.v.v.v.v.v.n 2.w.r.r.r.-.:.>.>.g.z.x.x.x.c.c.x.c.x.l.,.:.>.:.t.q.r.e.4.A g v.v.v.v.v.v.v.v.v.v.v.v.v.v.v.",
"v.v.v.v.v.v.v.v.v.v.v.v.v.v.v.v.a C e.r.q.y.;.:.>.,.j.z.c.x.x.x.x.x.x.c.x.x.l.d.>.>.:.y.r.r.q.#.d v.v.v.v.v.v.v.v.v.v.v.v.v.v.v.",
"v.v.v.v.v.v.v.v.v.v.v.v.v.v.v., S 6.r.r.y.;.>.:.>.s.x.c.c.x.x.c.x.x.x.x.x.c.c.f.:.:.>.:.p.r.r.0.&.y v.v.v.v.v.v.v.v.v.v.v.v.v.v.",
"v.v.v.v.v.v.v.v.v.v.v.v.v.v.v.& D i.q.r.-.>.:.>.:.s.x.c.x.x.x.x.x.c.x.x.x.c.c.g.:.>.:.>.:.r.r.u.=.t v.v.v.v.v.v.v.v.v.v.v.v.v.v.",
"v.v.v.v.v.v.v.v.v.v.v.v.v.v.1 N %.u.r.q.-.>.>.:.>.:.f.z.c.x.x.x.x.x.x.x.c.c.h.s.:.>.:.:.:.u.r.r.0.S p v.v.v.v.v.v.v.v.v.v.v.v.v.",
"v.v.v.v.v.v.v.v.v.v.v.v.v.y V 7.e.r.r.r.y.;.>.>.>.:.>.d.l.c.c.c.c.c.c.c.z.g.,.>.>.>.>.:.p.r.q.r.q.9.F s v.v.v.v.v.v.v.v.v.v.v.v.",
"v.v.v.v.v.v.v.v.v.v.1 l l A 4.7.w.r.r.r.q.t.p.:.>.>.>.>.s.h.h.h.h.h.h.h.f.:.>.>.>.>.-.t.q.r.r.r.q.8.7.} l l p v.v.v.v.v.v.v.v.v.",
"v.v.v.v.v.v.v.v.v.u N 6.9.4.<.4.8.q.r.u.r.q.r.p.-.-.>.>.>.>.>.>.>.>.>.>.>.:.>.>.-.-.t.r.r.r.r.q.w.4.3.4.9.9.D h v.v.v.v.v.v.v.v.",
"v.v.v.v.v.v.v.v.- B u.r.8.8.7. .3.9.e.e.r.r.r.r.q.t.-.-.-.-.;.a.-.;.;.-.a.:.:.=.q.r.r.r.r.r.e.w.7. .3.8.8.q.i.%.< v.v.v.v.v.v.v.",
"v.v.v.v.v.v.v.v.y D r.r.r.w.4.3.3.4.7.e.q.r.r.r.r.r.q.r.r.q.r.q.q.r.r.q.r.q.q.r.r.r.r.r.r.e.8.4.4.<.4.8.r.r.u.%.h v.v.v.v.v.v.v.",
"v.v.v.v.v.v.v.< $.u.r.r.q.w.7.7.3.3.7.7.w.q.q.q.r.r.r.r.r.r.r.r.r.r.r.r.r.r.r.r.q.r.q.q.e.7.9.<.<.4.7.9.q.r.q.r.e.h % v.v.v.v.v.",
"v.v.v.v.v.v.v.y %.u.r.r.9.7.7.8.8.7.4.7.4.7.7.e.q.q.r.r.r.r.r.q.r.r.r.r.r.r.r.q.q.q.8.7.7.7.7.7.8.5.7.7.7.q.r.r.0.k < v.v.v.v.v.",
"v.v.v.v.v.% p 2.w.r.q.e.8.4.8.e.q.w.8.8.<.<.4.7.5.8.q.q.q.q.q.e.q.q.q.q.q.q.q.w.5.7.7.<.<.7.7.8.q.q.8.7.7.e.r.r.q.8.V - v.v.v.v.",
"v.v.v.v.v.- p 2.7.w.e.7.7.8.q.r.r.r.q.8.3.O.3.4.7.7.7.7.7.7.8.7.8.7.7.7.7.7.7.8.7.7.3. .<.7.w.r.r.q.r.w.7.7.e.e.7.7.V - v.v.v.v.",
"v.v.v.v., s m b 1.7.7.7.7.w.r.r.r.q.r.q.8.4.4.3.3.7.7.7.7.7.7.7.7.7.7.7.7.7.4.7.4.<.4.7.8.e.r.r.r.r.r.e.7.7.7.7.2.~ m m < v.v.v.",
"v.v.v.< x ) _ ) v ~ 7.7.7.w.q.r.r.r.r.r.q.w.7.4.7.7.7.3.3.3. .O. . . .3.3.3.4.7.7.4.4.8.e.q.r.r.r.r.r.e.7.7.7.1.b Y _ _ m 4 v.v.",
"v.v.4 m ) ) ) ) ) ..7.7.4.8.r.r.r.r.r.q.r.q.w.8.7.7.7.4.3.O. . . . . . .O.4.7.7.7.7.w.q.r.r.r.r.r.r.r.w.7.7.7.3.M ) _ _ ) ) s - ",
"v.- 4 ` ` ) ) _ _ o.7.7.4.8.8.e.r.r.r.r.r.r.r.8.4.7.7.7.7.4.4.4.4.4.4.4.4.7.7.7.7.7.e.r.q.r.r.r.r.r.w.7.7.7.8.3.` ) ) _ ) ` x - ",
"v.- 4 ) _ ) ` | |  .3.7.7.7.7.8.e.r.r.q.r.q.8.7.7.7.7.7.7.7.7.7.7.7.7.7.7.7.7.7.7.7.9.w.r.r.r.r.q.w.8.7.7.7.4.<.| | ] ) ) ` x , ",
"v.- 4 ) ) [ |  . . . .3.3.4.7.7.8.8.8.w.8.8.7.7.7.7.7.7.8.w.w.w.w.w.w.w.8.7.7.7.7.7.7.8.9.8.8.9.8.7.7.4.<.3.<. . . . .[ ` _ x - ",
"v.- 4 ) ) [  . . . . . . .O.3.7.7.7.4.7.7.7.7.7.7.7.7.8.e.q.r.r.r.r.r.r.e.w.7.7.7.7.7.4.7.7.7.4.7.7.4.<. . . . . . . .| ` _ x - ",
"v.v.2 x ) |  . . . . . . . .3.7.7.7.7.7.7.7.7.7.7.7.8.q.r.r.r.r.r.r.r.r.r.r.w.9.7.7.7.7.7.7.7.7.7.7.4.3. . . . . . . . .` x a , ",
"v.v.v.- a M '  . . . . .<.4.8.7.7.7.7.7.7.7.3.7.7.8.q.r.q.r.r.r.r.q.r.r.r.r.r.8.7.7.4.4.7.7.7.7.7.7.7.4.3. . . . . .{ Z x 1 - v.",
"v.v.v., < a m A  .<. . .4.7.7.7.7.7.7.7.7.4. .4.4.8.q.r.r.r.r.r.r.r.r.r.q.r.r.w.7.7.<.3.7.7.7.7.7.7.7.7.8.O. . . .{ M s 1 - - v.",
"v.v.< 1 f m ) n {  . . .4.7.7.7.7.7.7.7.7.3. .7.7.9.e.q.r.r.r.r.r.r.r.q.r.r.e.8.7.7.3.3.4.7.7.7.7.7.7.7.7.O. . . .M ) ) m 6 < v.",
"v.< 2 c ) ) ]  . . . . .<.7.8.4.7.7.8.4.3. . .4.4.7.8.w.w.e.r.r.r.r.q.q.e.e.7.7.7.7. . . .7.7.7.7.7.7.7.4. . . . . .[ ) ) m a 1 ",
"- 6 v ) ) ) ] |  . .|  .<.<.4.4.4.4.4. . . . . .3.7.4.4.4.8.e.e.e.e.q.8.7.7.4.7.4. . . . . .3.7.4.4.7.3. . . .|  . .[ ) ) _ m d ",
"- 6 m ) ] ] ] ) | [ ]  . . . . .O. . . . . . . . . . .4.7.7.7.7.7.7.7.7.7.4.<. . . . . . . . . . . . . . . .[ ] | [ ) ) ] ] M c ",
"- x ) ] |  .| ] ) [  . . . . . .o. . . . . . .|  . . . .3.7.4.7.5.7.7.7.4.<. . .|  . . . . . . .|  . . . . . .| ` _ [  . .] ) ) ",
"- x ]  . . . . .] ) ] ) ) ) ..) ) [  . . . . .] ` ]  . . .<. . . . .<.<. . . .[ ] ] |  . . . .| ) ] ) ] ) ] ) ) ] |  . . . .[ ) ",
"- x ` ] |  .| ] ) ) ) ) ) ) ) ) ) ) ]  . .| ] {  . . . . . . . . . . . . . . . .|  .] [  . .] ) ) ) ) ) ) ) ) ) ) ) |  . .[ ) ) ",
"- x _ ) ] | | ) ) m c c z d b ) ) ) ) ` ] ' |  . . . . . . . . . . . . . . . . . . . .[ ] ] ) ) ) b f g c x c c ) _ ..| ] ] ) _ ",
"- x ` ) ) ] ] ) b s 5 J J J K z x m ) c m ]  . . . . . . . . . . . . . . . . . . . . .| ) c M ) g g H J J J w 7 c m _ ` ) ) ) _ ",
"v.2 a x c m ` ) c 7 3 L U I P J J H c m ) ) ]  . . . . . . . . . . . . . . . . . . .[ ` ) m m z J J J I U I w 3 d M ] ) c c s 4 ",
"v.- 1 d g g m c z s 7 w L U U U I P J b ) _ ) ] |  . .| |  . . . . . . . .[  . .| [ ` ` ) m K P P U U U I w 7 s s c c c f g 6 - ",
"v.v.1 2 d g d d g g d 9 w e U E P P J 7 v _ ) ) ] [ [ ) [  . . . . . .<.| ) ] [ ] _ _ ] ) 7 e P P U R P w 7 a g c d d d f 6 1 v.",
"v.v.v., 2 a g g d d s d s 5 e P P P P e 7 v ) ) ) _ ) ) ] [  . . .<. .| ] ) ) _ _ _ _ Y d w e P P I G w 9 d d g s d g d 2 1 v.v.",
"v.v.v.v.v.1 6 6 d d g g g 9 3 G P P U P w 7 _ ` m v ) ) ) ) [ [ | [ [ ] _ _ ) v v _ _ c q e I I J P 5 5 g s g d g 6 4 2 , v.v.v.",
"v.v.v.v.v.v.- - 6 6 4 6 d 9 3 G I U U P w w c v 7 7 ) _ _ ) _ _ ) ) ) ) _ _ _ z 5 z v 8 w e R R I P w 5 d a 6 6 6 1 - v.v.v.v.v.",
"v.v.v.v.v.v.v.v.v.- - - 2 w w P R E R U I e q q 0 w v v m _ _ _ ) _ ` ` _ v Y r q q q e I I R R R U G w 9 < - - - v.v.v.v.v.v.v.",
"v.v.v.v.v.v.v.v.v.v.v.v.> e E E R E W W R P I P P L w 0 H v m v ) m v m Y w w e P P I I U W W E T T E P 3 v.v.v.v.v.v.v.v.v.v.v.",
"v.v.v.v.v.v.v.v.v.v.v.v.> L T W W ! @.@.! R U I P U T E P 0 0 w > q q q e R E T P I U R W ( @./ W E E U q = v.v.v.v.v.v.v.v.v.v.",
"v.v.v.v.v.v.v.v.v.v.$ w U E W / @./ ^ ! E U P T R E R E U P T E W E R I P R R R R R I U T ! ! / @.@.! E T w : v.v.v.v.v.v.v.v.v.",
"v.v.v.v.v.v.v.v.v.; w T E ! @.@./ E 0 3 > w R R E R E U U P R ^ @./ W U I U R R R R E e > q > P / @.@.^ E E G > v.v.v.v.v.v.v.v.",
"v.v.v.v.v.v.v.. ; e R E ^ ( @./ P w L P w w R E E E T w e E / @.@.@.@.Q P q I R R E R P q e P e w ! @.@./ W E P 3 + v.v.v.v.v.v.",
"v.v.v.v.v.v.v.. ; e W / +.+.! e w P P P w w E ^ @.^ E w e E / @.@.@./ ! P 3 I ! ( / W L q e P P e q E @.@.@.! I 3 + v.v.v.v.v.v.",
"v.v.v.v.v.v.v.. : e W ( @.W w G P P G 3 G W / @.@./ T w e R E / @./ W E P 0 I ! @.@.+.! P q e P P P w P @.@.! P 3 + v.v.v.v.v.v.",
"v.v.v.v.v.  v.  ; G W / @.E 3 G U T U 0 G W ( ( @.^ w P T R T E W E E E R U w U @.@.@.! U q P R U P q G / @.! P 3 + v.    v.v.v.",
"v.v.v.v.    v.. ; I / +.U e e P U I w I U W ( ( @.Q 0 P E T E ! / ^ E T E U q U @.@.@.! R I e e E P L e G ^ @.W 3 + v.      v.v.",
"v.v.v.v.    v.. : U / W e q P U T P 3 I ! ( +.@.^ T 0 P E E ^ ( @.@./ W E T q P ! @.@./ ! E w e E U P e q R / ! 3 + v.      v.v.",
"v.v.v.v.    v.. ; R / E q q P E P G I ! / @.+.@.W w e w U / +.@.@.@.@./ E e e w P / @.@.@.! R G e U U w q P ^ Q 3 + v.      v.v.",
"v.v.v.      v.. : P Q R w w U E 0 0 E / +.+.+.! P 3 P 0 P @.@.+.+.@.@.@.Q 3 e w w Q / @.@.( Q L q U T P 3 U W E 3 + v.      v.v.",
"v.v.v.v.v.  v.  @ w R T w e U w 3 e E ( @.@.+.W e 3 G 5 J ! +.+.@.@.( / T 0 e w q E / @.@.@.Q J 3 3 I P 3 U E P * X v.  v.v.v.v.",
"v.v.v.v.v.      v.q E T w e U O * w E / @./ ! P w e P q e W / @.( @.+.! P 3 P G w L W / +.( Q P : . e I 3 U W P . v.      v.v.v.",
"v.v.v.v.v.v.    v.= e e 3 q 0 o = w W / @.! P e P U E P e U / @.+.@.+.W e G U T P e e W @.@.Q P > o : w 3 w e 3 .     v.v.v.v.v.",
"v.v.v.v.v.v.v.v.v.  v.v.$ $ v.  # w E ! / W 3 P E U P E P q ! / @.+.^ L w T I U E E q P ^ ! W P = X v.O = . v.v.  v.v.v.v.v.v.v.",
"v.v.v.v.v.v.v.v.v.v.v.  v.v.    v.= I U E P 3 U E U 3 G e 3 U ^ @./ W e q P q e E U w e E E U q v.v.  v.v.  v.v.v.v.v.v.v.v.v.v.",
"v.v.v.v.v.v.v.v.v.v.v.v.v.v.    v.@ 3 P E P 3 P U P > ; : q U ! / ^ E e > : : w U P q e T I w =       v.v.v.v.v.v.v.v.v.v.v.v.v.",
"v.v.v.v.v.v.v.v.v.v.v.v.v.v.v.v.v.@ > > e G > : : ; . v.@ 3 U E T E T e =   v.$ : > > w P > > = v.v.v.v.v.v.v.v.v.v.v.v.v.v.v.v.",
"v.v.v.v.v.v.v.v.v.v.v.v.v.v.v.v.v.v.v.v.v.v.v.v.v.v.    v.@ P U U U U > v.    v.v.v.v.v.v.v.v.v.v.v.v.v.v.v.v.v.v.v.v.v.v.v.v.v.",
"v.v.v.v.v.v.v.v.v.v.v.v.v.v.v.v.v.v.v.v.v.v.v.v.v.v.v.      . . . . .         v.v.v.v.v.v.v.v.v.v.v.v.v.v.v.v.v.v.v.v.v.v.v.v.v."
};
